<svg xmlns="http://www.w3.org/2000/svg" xmlns:xlink="http://www.w3.org/1999/xlink" width="445.983" height="105.034" viewBox="0 0 445.983 105.034">
  <defs>
    <linearGradient id="linear-gradient" x1="-0.131" y1="1.315" x2="1.159" y2="-0.32" gradientUnits="objectBoundingBox">
      <stop offset="0" stop-color="#f9df08"/>
      <stop offset="1" stop-color="#a04cf4"/>
    </linearGradient>
  </defs>
  <g id="Group_1" data-name="Group 1" transform="translate(-1.105 -27.886)">
    <path id="Path_1" data-name="Path 1" d="M83.174-32.181H53.73v84.3H30.405v-84.3H1.1V-51.114H83.174Zm33.548,86.1q-18.43,0-28.976-10.331T77.2,15.549q0-18.286,10.943-28.616T117.73-23.4q18.358,0,28.8,10.331t10.439,27.32q0,18.358-10.763,29.012T116.722,53.92Zm.576-59.9q-8.063,0-12.526,5.543t-4.463,15.694q0,21.237,17.134,21.237,16.342,0,16.342-21.813Q133.784-5.976,117.3-5.976Zm56.657,58.1V-51.114h36.571q55,0,55,50.322,0,24.117-15.01,38.515t-39.991,14.4Zm23.253-84.3v65.44h11.519q15.118,0,23.721-9.071T241.05-.5q0-14.758-8.531-23.217t-23.937-8.459Zm118.353,86.1q-18.43,0-28.976-10.331t-10.547-28.04q0-18.286,10.943-28.616T316.568-23.4q18.358,0,28.8,10.331T355.8,14.253q0,18.358-10.763,29.012T315.561,53.92Zm.576-59.9q-8.063,0-12.526,5.543t-4.463,15.694q0,21.237,17.134,21.237,16.342,0,16.342-21.813Q332.622-5.976,316.136-5.976Zm130.951,58.1H363.938V38.73l52.913-70.911h-49.1V-51.114h79.19v13.03L395.182,33.259h51.905Z" transform="translate(0 79)" fill="url(#linear-gradient)"/>
  </g>
</svg>
